{
    "asset": {
        "version": "2.0",
        "generator": "Blockbench 4.9.4 glTF exporter"
    },
    "scenes": [
        {
            "nodes": [
                10
            ],
            "name": "blockbench_export"
        }
    ],
    "scene": 0,
    "nodes": [
        {
            "translation": [
                -0.125,
                -0.375,
                0
            ],
            "name": "R_L_Leg",
            "mesh": 0
        },
        {
            "translation": [
                0,
                -0.3125,
                0
            ],
            "name": "Right_L_Leg",
            "children": [
                0
            ]
        },
        {
            "translation": [
                -0.125,
                -0.6875,
                0
            ],
            "name": "R_U_Leg",
            "mesh": 1
        },
        {
            "translation": [
                0.125,
                -0.0625,
                0
            ],
            "name": "Rigth_Leg",
            "children": [
                1,
                2
            ]
        },
        {
            "translation": [
                0.125,
                -0.375,
                0
            ],
            "name": "L_L_Leg",
            "mesh": 2
        },
        {
            "translation": [
                0,
                -0.3125,
                0
            ],
            "name": "Left_L_Leg",
            "children": [
                4
            ]
        },
        {
            "translation": [
                0.125,
                -0.6875,
                0
            ],
            "name": "L_U_Leg",
            "mesh": 3
        },
        {
            "translation": [
                -0.125,
                -0.0625,
                0
            ],
            "name": "Left_Leg",
            "children": [
                5,
                6
            ]
        },
        {
            "translation": [
                0,
                -0.75,
                0
            ],
            "name": "Torso",
            "mesh": 4
        },
        {
            "translation": [
                0,
                0.75,
                0
            ],
            "name": "Torso",
            "children": [
                3,
                7,
                8
            ]
        },
        {
            "children": [
                9
            ]
        }
    ],
    "bufferViews": [
        {
            "buffer": 0,
            "byteOffset": 0,
            "byteLength": 288,
            "target": 34962,
            "byteStride": 12
        },
        {
            "buffer": 0,
            "byteOffset": 288,
            "byteLength": 288,
            "target": 34962,
            "byteStride": 12
        },
        {
            "buffer": 0,
            "byteOffset": 576,
            "byteLength": 192,
            "target": 34962,
            "byteStride": 8
        },
        {
            "buffer": 0,
            "byteOffset": 768,
            "byteLength": 72,
            "target": 34963
        },
        {
            "buffer": 0,
            "byteOffset": 840,
            "byteLength": 288,
            "target": 34962,
            "byteStride": 12
        },
        {
            "buffer": 0,
            "byteOffset": 1128,
            "byteLength": 288,
            "target": 34962,
            "byteStride": 12
        },
        {
            "buffer": 0,
            "byteOffset": 1416,
            "byteLength": 192,
            "target": 34962,
            "byteStride": 8
        },
        {
            "buffer": 0,
            "byteOffset": 1608,
            "byteLength": 72,
            "target": 34963
        },
        {
            "buffer": 0,
            "byteOffset": 1680,
            "byteLength": 288,
            "target": 34962,
            "byteStride": 12
        },
        {
            "buffer": 0,
            "byteOffset": 1968,
            "byteLength": 288,
            "target": 34962,
            "byteStride": 12
        },
        {
            "buffer": 0,
            "byteOffset": 2256,
            "byteLength": 192,
            "target": 34962,
            "byteStride": 8
        },
        {
            "buffer": 0,
            "byteOffset": 2448,
            "byteLength": 72,
            "target": 34963
        },
        {
            "buffer": 0,
            "byteOffset": 2520,
            "byteLength": 288,
            "target": 34962,
            "byteStride": 12
        },
        {
            "buffer": 0,
            "byteOffset": 2808,
            "byteLength": 288,
            "target": 34962,
            "byteStride": 12
        },
        {
            "buffer": 0,
            "byteOffset": 3096,
            "byteLength": 192,
            "target": 34962,
            "byteStride": 8
        },
        {
            "buffer": 0,
            "byteOffset": 3288,
            "byteLength": 72,
            "target": 34963
        },
        {
            "buffer": 0,
            "byteOffset": 3360,
            "byteLength": 288,
            "target": 34962,
            "byteStride": 12
        },
        {
            "buffer": 0,
            "byteOffset": 3648,
            "byteLength": 288,
            "target": 34962,
            "byteStride": 12
        },
        {
            "buffer": 0,
            "byteOffset": 3936,
            "byteLength": 192,
            "target": 34962,
            "byteStride": 8
        },
        {
            "buffer": 0,
            "byteOffset": 4128,
            "byteLength": 72,
            "target": 34963
        },
        {
            "buffer": 0,
            "byteOffset": 4200,
            "byteLength": 4
        },
        {
            "buffer": 0,
            "byteOffset": 4204,
            "byteLength": 16
        },
        {
            "buffer": 0,
            "byteOffset": 4220,
            "byteLength": 4
        },
        {
            "buffer": 0,
            "byteOffset": 4224,
            "byteLength": 16
        },
        {
            "buffer": 0,
            "byteOffset": 4240,
            "byteLength": 4
        },
        {
            "buffer": 0,
            "byteOffset": 4244,
            "byteLength": 16
        },
        {
            "buffer": 0,
            "byteOffset": 4260,
            "byteLength": 4
        },
        {
            "buffer": 0,
            "byteOffset": 4264,
            "byteLength": 16
        },
        {
            "buffer": 0,
            "byteOffset": 4280,
            "byteLength": 4
        },
        {
            "buffer": 0,
            "byteOffset": 4284,
            "byteLength": 12
        }
    ],
    "buffers": [
        {
            "byteLength": 4296,
            "uri": "data:application/octet-stream;base64,"
        }
    ],
    "accessors": [
        {
            "bufferView": 0,
            "componentType": 5126,
            "count": 24,
            "max": [
                0.234375,
                0.375,
                0.109375
            ],
            "min": [
                0.015625,
                0,
                -0.109375
            ],
            "type": "VEC3"
        },
        {
            "bufferView": 1,
            "componentType": 5126,
            "count": 24,
            "max": [
                1,
                1,
                1
            ],
            "min": [
                -1,
                -1,
                -1
            ],
            "type": "VEC3"
        },
        {
            "bufferView": 2,
            "componentType": 5126,
            "count": 24,
            "max": [
                0.21875,
                0.375
            ],
            "min": [
                0,
                0
            ],
            "type": "VEC2"
        },
        {
            "bufferView": 3,
            "componentType": 5123,
            "count": 36,
            "max": [
                23
            ],
            "min": [
                0
            ],
            "type": "SCALAR"
        },
        {
            "bufferView": 4,
            "componentType": 5126,
            "count": 24,
            "max": [
                0.25,
                0.75,
                0.125
            ],
            "min": [
                0,
                0.375,
                -0.125
            ],
            "type": "VEC3"
        },
        {
            "bufferView": 5,
            "componentType": 5126,
            "count": 24,
            "max": [
                1,
                1,
                1
            ],
            "min": [
                -1,
                -1,
                -1
            ],
            "type": "VEC3"
        },
        {
            "bufferView": 6,
            "componentType": 5126,
            "count": 24,
            "max": [
                0.25,
                0.375
            ],
            "min": [
                0,
                0
            ],
            "type": "VEC2"
        },
        {
            "bufferView": 7,
            "componentType": 5123,
            "count": 36,
            "max": [
                23
            ],
            "min": [
                0
            ],
            "type": "SCALAR"
        },
        {
            "bufferView": 8,
            "componentType": 5126,
            "count": 24,
            "max": [
                -0.015625,
                0.375,
                0.109375
            ],
            "min": [
                -0.234375,
                0,
                -0.109375
            ],
            "type": "VEC3"
        },
        {
            "bufferView": 9,
            "componentType": 5126,
            "count": 24,
            "max": [
                1,
                1,
                1
            ],
            "min": [
                -1,
                -1,
                -1
            ],
            "type": "VEC3"
        },
        {
            "bufferView": 10,
            "componentType": 5126,
            "count": 24,
            "max": [
                0.21875,
                0.375
            ],
            "min": [
                0,
                0
            ],
            "type": "VEC2"
        },
        {
            "bufferView": 11,
            "componentType": 5123,
            "count": 36,
            "max": [
                23
            ],
            "min": [
                0
            ],
            "type": "SCALAR"
        },
        {
            "bufferView": 12,
            "componentType": 5126,
            "count": 24,
            "max": [
                0,
                0.75,
                0.125
            ],
            "min": [
                -0.25,
                0.375,
                -0.125
            ],
            "type": "VEC3"
        },
        {
            "bufferView": 13,
            "componentType": 5126,
            "count": 24,
            "max": [
                1,
                1,
                1
            ],
            "min": [
                -1,
                -1,
                -1
            ],
            "type": "VEC3"
        },
        {
            "bufferView": 14,
            "componentType": 5126,
            "count": 24,
            "max": [
                0.25,
                0.375
            ],
            "min": [
                0,
                0
            ],
            "type": "VEC2"
        },
        {
            "bufferView": 15,
            "componentType": 5123,
            "count": 36,
            "max": [
                23
            ],
            "min": [
                0
            ],
            "type": "SCALAR"
        },
        {
            "bufferView": 16,
            "componentType": 5126,
            "count": 24,
            "max": [
                0.25,
                1.4375,
                0.125
            ],
            "min": [
                -0.25,
                0.75,
                -0.125
            ],
            "type": "VEC3"
        },
        {
            "bufferView": 17,
            "componentType": 5126,
            "count": 24,
            "max": [
                1,
                1,
                1
            ],
            "min": [
                -1,
                -1,
                -1
            ],
            "type": "VEC3"
        },
        {
            "bufferView": 18,
            "componentType": 5126,
            "count": 24,
            "max": [
                0.5,
                0.6875
            ],
            "min": [
                0,
                0
            ],
            "type": "VEC2"
        },
        {
            "bufferView": 19,
            "componentType": 5123,
            "count": 36,
            "max": [
                23
            ],
            "min": [
                0
            ],
            "type": "SCALAR"
        },
        {
            "bufferView": 20,
            "componentType": 5126,
            "count": 1,
            "max": [
                0
            ],
            "min": [
                0
            ],
            "type": "SCALAR"
        },
        {
            "bufferView": 21,
            "componentType": 5126,
            "count": 1,
            "max": [
                -0.4226182699203491,
                0,
                0,
                0.9063078165054321
            ],
            "min": [
                -0.4226182699203491,
                0,
                0,
                0.9063078165054321
            ],
            "type": "VEC4"
        },
        {
            "bufferView": 22,
            "componentType": 5126,
            "count": 1,
            "max": [
                0
            ],
            "min": [
                0
            ],
            "type": "SCALAR"
        },
        {
            "bufferView": 23,
            "componentType": 5126,
            "count": 1,
            "max": [
                0.4809887707233429,
                0,
                0,
                0.8767267465591431
            ],
            "min": [
                0.4809887707233429,
                0,
                0,
                0.8767267465591431
            ],
            "type": "VEC4"
        },
        {
            "bufferView": 24,
            "componentType": 5126,
            "count": 1,
            "max": [
                0
            ],
            "min": [
                0
            ],
            "type": "SCALAR"
        },
        {
            "bufferView": 25,
            "componentType": 5126,
            "count": 1,
            "max": [
                -0.2164396196603775,
                0,
                0,
                0.9762960076332092
            ],
            "min": [
                -0.2164396196603775,
                0,
                0,
                0.9762960076332092
            ],
            "type": "VEC4"
        },
        {
            "bufferView": 26,
            "componentType": 5126,
            "count": 1,
            "max": [
                0
            ],
            "min": [
                0
            ],
            "type": "SCALAR"
        },
        {
            "bufferView": 27,
            "componentType": 5126,
            "count": 1,
            "max": [
                -0.13052618503570557,
                0,
                0,
                0.9914448857307434
            ],
            "min": [
                -0.13052618503570557,
                0,
                0,
                0.9914448857307434
            ],
            "type": "VEC4"
        },
        {
            "bufferView": 28,
            "componentType": 5126,
            "count": 1,
            "max": [
                0
            ],
            "min": [
                0
            ],
            "type": "SCALAR"
        },
        {
            "bufferView": 29,
            "componentType": 5126,
            "count": 1,
            "max": [
                0,
                0.125,
                -0.625
            ],
            "min": [
                0,
                0.125,
                -0.625
            ],
            "type": "VEC3"
        }
    ],
    "materials": [
        {
            "pbrMetallicRoughness": {
                "metallicFactor": 0,
                "roughnessFactor": 1
            },
            "alphaMode": "MASK",
            "alphaCutoff": 0.05,
            "doubleSided": true
        },
        {
            "pbrMetallicRoughness": {
                "metallicFactor": 0,
                "roughnessFactor": 1
            },
            "alphaMode": "MASK",
            "alphaCutoff": 0.05,
            "doubleSided": true
        }
    ],
    "meshes": [
        {
            "primitives": [
                {
                    "mode": 4,
                    "attributes": {
                        "POSITION": 0,
                        "NORMAL": 1,
                        "TEXCOORD_0": 2
                    },
                    "indices": 3,
                    "material": 0
                }
            ]
        },
        {
            "primitives": [
                {
                    "mode": 4,
                    "attributes": {
                        "POSITION": 4,
                        "NORMAL": 5,
                        "TEXCOORD_0": 6
                    },
                    "indices": 7,
                    "material": 0
                }
            ]
        },
        {
            "primitives": [
                {
                    "mode": 4,
                    "attributes": {
                        "POSITION": 8,
                        "NORMAL": 9,
                        "TEXCOORD_0": 10
                    },
                    "indices": 11,
                    "material": 0
                }
            ]
        },
        {
            "primitives": [
                {
                    "mode": 4,
                    "attributes": {
                        "POSITION": 12,
                        "NORMAL": 13,
                        "TEXCOORD_0": 14
                    },
                    "indices": 15,
                    "material": 0
                }
            ]
        },
        {
            "primitives": [
                {
                    "mode": 4,
                    "attributes": {
                        "POSITION": 16,
                        "NORMAL": 17,
                        "TEXCOORD_0": 18
                    },
                    "indices": 19,
                    "material": 1
                }
            ]
        }
    ],
    "animations": [
        {
            "name": "test",
            "samplers": [
                {
                    "input": 20,
                    "output": 21,
                    "interpolation": "LINEAR"
                },
                {
                    "input": 22,
                    "output": 23,
                    "interpolation": "LINEAR"
                },
                {
                    "input": 24,
                    "output": 25,
                    "interpolation": "LINEAR"
                },
                {
                    "input": 26,
                    "output": 27,
                    "interpolation": "LINEAR"
                },
                {
                    "input": 28,
                    "output": 29,
                    "interpolation": "LINEAR"
                }
            ],
            "channels": [
                {
                    "sampler": 0,
                    "target": {
                        "node": 7,
                        "path": "rotation"
                    }
                },
                {
                    "sampler": 1,
                    "target": {
                        "node": 3,
                        "path": "rotation"
                    }
                },
                {
                    "sampler": 2,
                    "target": {
                        "node": 5,
                        "path": "rotation"
                    }
                },
                {
                    "sampler": 3,
                    "target": {
                        "node": 1,
                        "path": "rotation"
                    }
                },
                {
                    "sampler": 4,
                    "target": {
                        "node": 1,
                        "path": "translation"
                    }
                }
            ]
        }
    ]
}